<svg xmlns="http://www.w3.org/2000/svg" viewBox="0 0 200 200" width="200" height="200" role="img" aria-label="盖饭插画">
  <circle cx="100" cy="100" r="88" fill="#FFF4E6"/>
  <rect x="6" y="150" width="188" height="26" rx="13" fill="#F0DFC8"/>
  <ellipse cx="100" cy="156" rx="44" ry="8" fill="#E2CDB2"/>
  <path d="M48 100 L54 142 Q100 166 146 142 L152 100 Z" fill="#FFFFFF" stroke="#4A3B2E" stroke-width="4" stroke-linecap="round" stroke-linejoin="round"/>
  <ellipse cx="100" cy="100" rx="52" ry="20" fill="#FFFFFF" stroke="#4A3B2E" stroke-width="4" stroke-linecap="round" stroke-linejoin="round"/>
  <ellipse cx="100" cy="101" rx="41" ry="14" fill="#FFF4E6"/>
  <rect x="76" y="88" width="16" height="14" rx="4" fill="#FF8A3D" stroke="#4A3B2E" stroke-width="4" stroke-linecap="round" stroke-linejoin="round"/>
  <rect x="96" y="94" width="15" height="13" rx="4" fill="#8B5E3C" stroke="#4A3B2E" stroke-width="4" stroke-linecap="round" stroke-linejoin="round"/>
  <rect x="114" y="86" width="16" height="14" rx="4" fill="#FF8A3D" stroke="#4A3B2E" stroke-width="4" stroke-linecap="round" stroke-linejoin="round"/>
  <rect x="86" y="106" width="14" height="12" rx="4" fill="#E5533D" stroke="#4A3B2E" stroke-width="4" stroke-linecap="round" stroke-linejoin="round"/>
  <circle cx="118" cy="108" r="7" fill="#FFC857" stroke="#4A3B2E" stroke-width="4" stroke-linecap="round" stroke-linejoin="round"/>
  <circle cx="70" cy="102" r="3" fill="#3E7A52"/>
  <circle cx="134" cy="98" r="3" fill="#3E7A52"/>
  <path d="M152 92 L184 48" fill="none" stroke="#4A3B2E" stroke-width="4" stroke-linecap="round" stroke-linejoin="round"/>
  <path d="M162 100 L192 58" fill="none" stroke="#4A3B2E" stroke-width="4" stroke-linecap="round" stroke-linejoin="round"/>
</svg>